<?xml version="1.0" standalone="no"?>
<!DOCTYPE svg PUBLIC "-//W3C//DTD SVG 20010904//EN"
 "http://www.w3.org/TR/2001/REC-SVG-20010904/DTD/svg10.dtd">
<svg version="1.0" xmlns="http://www.w3.org/2000/svg"
 width="70.000000pt" height="70.000000pt" viewBox="0 0 70.000000 70.000000"
 preserveAspectRatio="xMidYMid meet">
<metadata>
Created by potrace 1.11, written by Peter Selinger 2001-2013
</metadata>
<g transform="translate(0.000000,70.000000) scale(0.100000,-0.100000)"
fill="#000000" stroke="none">
<path d="M92 553 c-13 -3 -39 -20 -58 -40 -31 -30 -35 -40 -32 -76 2 -34 8
-44 30 -55 32 -15 60 -2 77 35 13 27 9 28 -24 7 -21 -14 -28 -14 -41 -3 -34
28 14 119 62 119 52 0 61 -43 30 -158 -18 -69 -14 -126 9 -152 47 -52 122 10
159 134 26 86 8 177 -28 147 -14 -12 -14 -16 0 -43 43 -83 -41 -278 -100 -235
-19 14 -18 27 3 117 29 127 25 162 -22 191 -18 10 -34 18 -37 18 -3 -1 -15 -4
-28 -6z"/>
<path d="M659 547 c-9 -7 -31 -37 -50 -67 -33 -54 -56 -79 -73 -80 -12 0 2 78
20 114 22 44 10 42 -27 -6 -36 -47 -52 -60 -87 -70 -28 -8 -56 17 -49 44 4 12
1 18 -6 15 -7 -2 -13 -20 -15 -40 -3 -32 0 -38 24 -47 21 -8 35 -7 65 8 l37
19 -8 -23 c-5 -12 -12 -42 -15 -65 -3 -24 -14 -60 -23 -79 -15 -30 -22 -35
-52 -35 -43 0 -52 27 -18 55 18 15 20 21 11 31 -10 10 -18 10 -38 1 -57 -26
-13 -113 55 -107 62 5 107 57 112 129 2 40 9 44 32 20 10 -10 16 -33 16 -65 0
-81 58 -114 102 -57 27 35 21 47 -7 14 l-24 -30 -9 25 c-6 13 -17 45 -27 71
-9 25 -23 52 -31 59 -12 10 -10 15 16 31 19 11 39 37 52 66 11 26 27 55 36 65
17 19 5 22 -19 4z"/>
</g>
</svg>
